<svg width="50" height="50" viewBox="0 0 50 50" fill="none" xmlns="http://www.w3.org/2000/svg">
<rect width="50" height="50" rx="25" fill="#CECECE"/>
<path d="M17.0715 17.0187C14.9599 19.1267 13.7721 21.9872 13.7695 24.9709C13.767 27.9546 14.9498 30.8171 17.0577 32.9287C19.1657 35.0404 22.0262 36.2281 25.0099 36.2307C27.9936 36.2333 30.8561 35.0505 32.9677 32.9425M35.0577 30.04C36.1154 27.9288 36.482 25.5384 36.1056 23.2073C35.7292 20.8762 34.6288 18.7227 32.9604 17.0517C31.2919 15.3808 29.14 14.2772 26.8095 13.8973C24.4789 13.5174 22.088 13.8804 19.9752 14.935M14.5002 21.25H21.2502H14.5002ZM26.2502 21.25H35.5002H26.2502ZM14.5002 28.75H28.7502H14.5002ZM33.7502 28.75H35.5002H33.7502Z" fill="#D6D6D6"/>
<path d="M17.0715 17.0187C14.9599 19.1267 13.7721 21.9872 13.7695 24.9709C13.767 27.9546 14.9498 30.8171 17.0577 32.9287C19.1657 35.0404 22.0262 36.2281 25.0099 36.2307C27.9936 36.2333 30.8561 35.0505 32.9677 32.9425M35.0577 30.04C36.1154 27.9288 36.482 25.5384 36.1056 23.2073C35.7292 20.8762 34.6288 18.7227 32.9604 17.0517C31.2919 15.3808 29.14 14.2772 26.8095 13.8973C24.4789 13.5174 22.088 13.8804 19.9752 14.935M14.5002 21.25H21.2502M26.2502 21.25H35.5002M14.5002 28.75H28.7502M33.7502 28.75H35.5002" stroke="white" stroke-width="1.5" stroke-linecap="round" stroke-linejoin="round"/>
<path d="M24.375 13.75C23.6293 14.9442 23.0042 16.2096 22.5087 17.5275M21.45 21.4587C20.6 26.4925 21.575 31.7638 24.375 36.25M25.625 13.75C27.5075 16.7663 28.603 20.2068 28.8112 23.7563M28.5525 28.5287C28.0909 31.2692 27.0963 33.8924 25.625 36.25M13.75 13.75L36.25 36.25" stroke="white" stroke-width="1.5" stroke-linecap="round" stroke-linejoin="round"/>
</svg>
