<svg width="126" height="84" viewBox="0 0 126 84" fill="none" xmlns="http://www.w3.org/2000/svg">
<path d="M13.6095 55.396C13.6095 60.2249 14.6655 63.9324 16.0458 66.1753C17.8554 69.1131 20.5545 70.3577 23.3062 70.3577C26.8554 70.3577 30.1022 69.4737 36.3593 60.7879C41.372 53.826 47.2785 44.0538 51.2527 37.9275L57.983 27.5485C62.6582 20.3403 68.0696 12.3273 74.2741 6.89592C79.3393 2.46283 84.8033 0 90.3023 0C99.5346 0 108.329 5.36984 115.059 15.441C122.425 26.471 126 40.364 126 54.7011C126 63.2243 124.326 69.4869 121.478 74.4346C118.726 79.2195 113.363 84 104.341 84V70.3577C112.066 70.3577 113.994 63.2331 113.994 55.0794C113.994 43.4601 111.295 30.5654 105.349 21.3518C101.13 14.8165 95.6611 10.8232 89.6451 10.8232C83.1383 10.8232 77.9021 15.7489 72.0175 24.5315C68.889 29.1977 65.6772 34.8842 62.0711 41.3007L58.1013 48.3594C50.1266 62.5514 48.1066 65.7839 44.1193 71.1185C37.1305 80.4597 31.1626 84 23.3062 84C13.9864 84 8.09299 79.9495 4.44304 73.8452C1.46349 68.8712 0 62.3447 0 54.9079L13.6095 55.396Z" fill="#0081FB"/>
<path d="M10.731 16.4042C16.9705 6.75078 25.9749 0 36.3025 0C42.2835 0 48.2295 1.77675 54.4384 6.86513C61.23 12.4285 68.4685 21.5893 77.4992 36.6873L80.7373 42.1055C88.5542 55.1761 93.0016 61.9005 95.6044 65.0714C98.952 69.1439 101.296 70.3577 104.341 70.3577C112.066 70.3577 113.994 63.2331 113.994 55.0794L126 54.7011C126 63.2243 124.326 69.4869 121.478 74.4346C118.727 79.2195 113.363 84 104.341 84C98.7329 84 93.7641 82.7774 88.2694 77.5747C84.0455 73.5814 79.1073 66.4875 75.3084 60.1106L64.008 41.1644C58.3381 31.6561 53.137 24.5667 50.1268 21.3562C46.8887 17.9039 42.7261 13.7347 36.0834 13.7347C30.7071 13.7347 26.1414 17.5213 22.3205 23.3133L10.731 16.4042Z" fill="url(#paint0_linear_35_314)"/>
<path d="M36.0833 13.7347C30.7069 13.7347 26.1412 17.5213 22.3204 23.3133C16.9177 31.4978 13.6095 43.6888 13.6095 55.396C13.6095 60.2249 14.6655 63.9324 16.0458 66.1753L4.44304 73.8452C1.46349 68.8712 0 62.3447 0 54.9079C0 41.3843 3.69815 27.289 10.7308 16.4042C16.9703 6.75078 25.9747 0 36.3023 0L36.0833 13.7347Z" fill="url(#paint1_linear_35_314)"/>
<defs>
<linearGradient id="paint0_linear_35_314" x1="26.7285" y1="51.4555" x2="113.488" y2="55.8211" gradientUnits="userSpaceOnUse">
<stop stop-color="#0064E1"/>
<stop offset="0.4" stop-color="#0064E1"/>
<stop offset="0.83" stop-color="#0073EE"/>
<stop offset="1" stop-color="#0082FB"/>
</linearGradient>
<linearGradient id="paint1_linear_35_314" x1="19.7176" y1="61.1309" x2="19.7176" y2="29.0262" gradientUnits="userSpaceOnUse">
<stop stop-color="#0082FB"/>
<stop offset="1" stop-color="#0064E0"/>
</linearGradient>
</defs>
</svg>
