<svg width="26" height="20" viewBox="0 0 26 20" fill="none" xmlns="http://www.w3.org/2000/svg">
<path d="M3.20031 13.1895C3.20031 14.3393 3.40983 15.222 3.68368 15.756C4.04274 16.4555 4.57828 16.7518 5.12425 16.7518C5.82845 16.7518 6.47267 16.5414 7.71415 14.4733C8.70872 12.8157 9.88065 10.489 10.6692 9.03037L12.0046 6.55916C12.9322 4.84293 14.0059 2.93508 15.2369 1.64188C16.2419 0.586387 17.3261 0 18.4171 0C20.2489 0 21.9938 1.27853 23.3291 3.67644C24.7906 6.30262 25.5 9.61047 25.5 13.0241C25.5 15.0534 25.1679 16.5445 24.6028 17.7225C24.0568 18.8618 22.9927 20 21.2026 20V16.7518C22.7354 16.7518 23.1179 15.0555 23.1179 13.1141C23.1179 10.3476 22.5823 7.27749 21.4026 5.08377C20.5654 3.52775 19.4804 2.57696 18.2867 2.57696C16.9957 2.57696 15.9568 3.74974 14.7892 5.84084C14.1685 6.95183 13.5312 8.30576 12.8157 9.83351L12.028 11.5141C10.4458 14.8932 10.045 15.6628 9.25383 16.933C7.86716 19.1571 6.68306 20 5.12425 20C3.27507 20 2.10575 19.0356 1.38156 17.5822C0.790374 16.3979 0.5 14.844 0.5 13.0733L3.20031 13.1895Z" fill="#0081FB"/>
<path d="M2.62891 3.90576C3.86691 1.60733 5.65349 0 7.70263 0C8.88934 0 10.0691 0.423037 11.301 1.63455C12.6486 2.95916 14.0848 5.14031 15.8766 8.73508L16.5191 10.0251C18.07 13.1372 18.9525 14.7382 19.4689 15.4932C20.1331 16.4628 20.5982 16.7518 21.2024 16.7518C22.7351 16.7518 23.1177 15.0555 23.1177 13.1141L25.4998 13.0241C25.4998 15.0534 25.1677 16.5445 24.6026 17.7225C24.0566 18.8618 22.9925 20 21.2024 20C20.0896 20 19.1037 19.7089 18.0135 18.4702C17.1754 17.5194 16.1956 15.8304 15.4419 14.312L13.1997 9.80105C12.0748 7.53717 11.0428 5.84921 10.4455 5.08482C9.80306 4.26283 8.97715 3.27016 7.65916 3.27016C6.59243 3.27016 5.68653 4.17173 4.92843 5.55079L2.62891 3.90576Z" fill="url(#paint0_linear_117_1284)"/>
<path d="M7.65938 3.27016C6.59264 3.27016 5.68674 4.17173 4.92864 5.55079C3.85669 7.49948 3.20031 10.4021 3.20031 13.1895C3.20031 14.3393 3.40983 15.222 3.68368 15.756L1.38156 17.5822C0.790374 16.3979 0.5 14.844 0.5 13.0733C0.5 9.8534 1.23376 6.49738 2.62912 3.90576C3.86712 1.60733 5.65371 0 7.70284 0L7.65938 3.27016Z" fill="url(#paint1_linear_117_1284)"/>
<defs>
<linearGradient id="paint0_linear_117_1284" x1="5.80303" y1="12.2513" x2="23.0304" y2="12.9737" gradientUnits="userSpaceOnUse">
<stop stop-color="#0064E1"/>
<stop offset="0.4" stop-color="#0064E1"/>
<stop offset="0.83" stop-color="#0073EE"/>
<stop offset="1" stop-color="#0082FB"/>
</linearGradient>
<linearGradient id="paint1_linear_117_1284" x1="4.41223" y1="14.555" x2="4.41223" y2="6.91099" gradientUnits="userSpaceOnUse">
<stop stop-color="#0082FB"/>
<stop offset="1" stop-color="#0064E0"/>
</linearGradient>
</defs>
</svg>
