<svg width="126" height="115" viewBox="0 0 126 115" fill="none" xmlns="http://www.w3.org/2000/svg">
<g clip-path="url(#clip0_35_312)">
<path d="M114.547 0H91.6353V23.002H114.547V0Z" fill="black"/>
<path d="M126 0H103.089V23.002H126V0Z" fill="#F7D046"/>
<path d="M22.9113 0H0V23.002H22.9113V0Z" fill="black"/>
<path d="M22.9113 23.002H0V46.0039H22.9113V23.002Z" fill="black"/>
<path d="M22.9113 45.999H0V69.001H22.9113V45.999Z" fill="black"/>
<path d="M22.9113 69.001H0V92.003H22.9113V69.001Z" fill="black"/>
<path d="M22.9113 91.998H0V115H22.9113V91.998Z" fill="black"/>
<path d="M34.3645 0H11.4531V23.002H34.3645V0Z" fill="#F7D046"/>
<path d="M126 23.002H103.089V46.0039H126V23.002Z" fill="#F2A73B"/>
<path d="M34.3645 23.002H11.4531V46.0039H34.3645V23.002Z" fill="#F2A73B"/>
<path d="M91.6403 23.002H68.729V46.0039H91.6403V23.002Z" fill="black"/>
<path d="M103.093 23.002H80.1821V46.0039H103.093V23.002Z" fill="#F2A73B"/>
<path d="M57.2761 23.002H34.3647V46.0039H57.2761V23.002Z" fill="#F2A73B"/>
<path d="M80.1823 45.999H57.271V69.001H80.1823V45.999Z" fill="#EE792F"/>
<path d="M103.093 45.999H80.1821V69.001H103.093V45.999Z" fill="#EE792F"/>
<path d="M57.2761 45.999H34.3647V69.001H57.2761V45.999Z" fill="#EE792F"/>
<path d="M68.7292 69.001H45.8179V92.003H68.7292V69.001Z" fill="black"/>
<path d="M80.1823 69.001H57.271V92.003H80.1823V69.001Z" fill="#EB5829"/>
<path d="M126 45.999H103.089V69.001H126V45.999Z" fill="#EE792F"/>
<path d="M34.3645 45.999H11.4531V69.001H34.3645V45.999Z" fill="#EE792F"/>
<path d="M114.547 69.001H91.6353V92.003H114.547V69.001Z" fill="black"/>
<path d="M126 69.001H103.089V92.003H126V69.001Z" fill="#EB5829"/>
<path d="M114.547 91.998H91.6353V115H114.547V91.998Z" fill="black"/>
<path d="M34.3645 69.001H11.4531V92.003H34.3645V69.001Z" fill="#EB5829"/>
<path d="M126 91.998H103.089V115H126V91.998Z" fill="#EA3326"/>
<path d="M34.3645 91.998H11.4531V115H34.3645V91.998Z" fill="#EA3326"/>
</g>
<defs>
<clipPath id="clip0_35_312">
<rect width="126" height="115" fill="white"/>
</clipPath>
</defs>
</svg>
