<svg width="20" height="20" viewBox="0 0 20 20" fill="none" xmlns="http://www.w3.org/2000/svg">
<g clip-path="url(#clip0_117_1282)">
<path d="M18.1821 0H14.5454V4.00034H18.1821V0Z" fill="black"/>
<path d="M20 0H16.3633V4.00034H20V0Z" fill="#F7D046"/>
<path d="M3.63672 0H0V4.00034H3.63672V0Z" fill="black"/>
<path d="M3.63672 4.00034H0V8.00068H3.63672V4.00034Z" fill="black"/>
<path d="M3.63672 7.99982H0V12.0002H3.63672V7.99982Z" fill="black"/>
<path d="M3.63672 12.0002H0V16.0005H3.63672V12.0002Z" fill="black"/>
<path d="M3.63672 15.9997H0V20H3.63672V15.9997Z" fill="black"/>
<path d="M5.45459 0H1.81787V4.00034H5.45459V0Z" fill="#F7D046"/>
<path d="M20 4.00034H16.3633V8.00068H20V4.00034Z" fill="#F2A73B"/>
<path d="M5.45459 4.00034H1.81787V8.00068H5.45459V4.00034Z" fill="#F2A73B"/>
<path d="M14.5459 4.00034H10.9092V8.00068H14.5459V4.00034Z" fill="black"/>
<path d="M16.3643 4.00034H12.7275V8.00068H16.3643V4.00034Z" fill="#F2A73B"/>
<path d="M9.09131 4.00034H5.45459V8.00068H9.09131V4.00034Z" fill="#F2A73B"/>
<path d="M12.7275 7.99982H9.09082V12.0002H12.7275V7.99982Z" fill="#EE792F"/>
<path d="M16.3643 7.99982H12.7275V12.0002H16.3643V7.99982Z" fill="#EE792F"/>
<path d="M9.09131 7.99982H5.45459V12.0002H9.09131V7.99982Z" fill="#EE792F"/>
<path d="M10.9092 12.0002H7.27246V16.0005H10.9092V12.0002Z" fill="black"/>
<path d="M12.7275 12.0002H9.09082V16.0005H12.7275V12.0002Z" fill="#EB5829"/>
<path d="M20 7.99982H16.3633V12.0002H20V7.99982Z" fill="#EE792F"/>
<path d="M5.45459 7.99982H1.81787V12.0002H5.45459V7.99982Z" fill="#EE792F"/>
<path d="M18.1821 12.0002H14.5454V16.0005H18.1821V12.0002Z" fill="black"/>
<path d="M20 12.0002H16.3633V16.0005H20V12.0002Z" fill="#EB5829"/>
<path d="M18.1821 15.9997H14.5454V20H18.1821V15.9997Z" fill="black"/>
<path d="M5.45459 12.0002H1.81787V16.0005H5.45459V12.0002Z" fill="#EB5829"/>
<path d="M20 15.9997H16.3633V20H20V15.9997Z" fill="#EA3326"/>
<path d="M5.45459 15.9997H1.81787V20H5.45459V15.9997Z" fill="#EA3326"/>
</g>
<defs>
<clipPath id="clip0_117_1282">
<rect width="20" height="20" fill="white"/>
</clipPath>
</defs>
</svg>
