<svg width="50" height="50" viewBox="0 0 50 50" fill="none" xmlns="http://www.w3.org/2000/svg">
<path d="M46.7029 20.4647C47.8526 17.06 47.4567 13.3302 45.6182 10.2333C42.8534 5.48316 37.2952 3.03936 31.8669 4.18938C29.452 1.50495 25.9825 -0.0216436 22.3451 0.000231916C16.7965 -0.0122684 11.8733 3.51281 10.1663 8.72229C6.60175 9.44262 3.52496 11.6442 1.72449 14.7646C-1.06093 19.5022 -0.425936 25.4742 3.29535 29.5368C2.14571 32.9416 2.54159 36.6713 4.38006 39.7683C7.14489 44.5184 12.7031 46.9622 18.1314 45.8121C20.5447 48.4966 24.0158 50.0232 27.6531 49.9997C33.205 50.0138 38.1297 46.4856 39.8368 41.2714C43.4013 40.5511 46.4781 38.3495 48.2785 35.2291C51.0608 30.4915 50.4242 24.5242 46.7045 20.4616L46.7029 20.4647ZM27.6563 46.7325C25.4346 46.7356 23.2826 45.9684 21.5771 44.5637C21.6547 44.5231 21.7893 44.4496 21.8764 44.3965L31.9666 38.6464C32.4829 38.3573 32.7996 37.8151 32.7964 37.2291V23.1929L37.0608 25.6227C37.1068 25.6445 37.1368 25.6883 37.1432 25.7383V37.362C37.1368 42.5308 32.8946 46.7215 27.6563 46.7325ZM7.25416 38.1339C6.14094 36.2369 5.74031 34.0135 6.12194 31.8556C6.19636 31.8993 6.3278 31.979 6.42122 32.0322L16.5114 37.7823C17.0229 38.0776 17.6563 38.0776 18.1694 37.7823L30.4876 30.7634V35.6229C30.4908 35.6729 30.467 35.7213 30.4275 35.7526L20.228 41.5636C15.6848 44.1449 9.88281 42.6105 7.25574 38.1339H7.25416ZM4.59859 16.4006C5.70705 14.5005 7.45685 13.0474 9.54077 12.2927C9.54077 12.3786 9.53602 12.5302 9.53602 12.6364V24.1382C9.53285 24.7226 9.84955 25.2648 10.3642 25.5539L22.6824 32.5712L18.418 35.001C18.3752 35.0291 18.3214 35.0338 18.2739 35.0135L8.07284 29.1977C3.53921 26.607 1.98419 20.8835 4.597 16.4021L4.59859 16.4006ZM39.6356 24.4461L27.3174 17.4272L31.5818 14.999C31.6246 14.9709 31.6784 14.9662 31.7259 14.9865L41.927 20.7976C46.4686 23.3867 48.0252 29.1196 45.4013 33.6009C44.2912 35.4979 42.543 36.951 40.4607 37.7073V25.8617C40.4654 25.2773 40.1503 24.7367 39.6372 24.4461H39.6356ZM43.8795 18.1428C43.8051 18.0975 43.6736 18.0194 43.5802 17.9662L33.49 12.2161C32.9785 11.9208 32.3451 11.9208 31.832 12.2161L19.5138 19.235V14.3755C19.5106 14.3255 19.5344 14.2771 19.574 14.2458L29.7735 8.43947C34.3166 5.85348 40.125 7.39258 42.7441 11.877C43.851 13.7708 44.2516 15.9881 43.8763 18.1428H43.8795ZM17.1955 26.8039L12.9295 24.3742C12.8836 24.3523 12.8535 24.3086 12.8472 24.2586V12.6349C12.8503 7.45977 17.1053 3.26593 22.3499 3.26905C24.5684 3.26905 26.7157 4.03782 28.4211 5.43785C28.3435 5.47847 28.2105 5.55191 28.1218 5.60504L18.0316 11.3552C17.5154 11.6442 17.1987 12.1849 17.2019 12.7708L17.1955 26.8008V26.8039ZM19.5122 21.8757L24.9991 18.7491L30.486 21.8741V28.1258L24.9991 31.2509L19.5122 28.1258V21.8757Z" fill="black"/>
</svg>
