<svg width="88" height="35" viewBox="0 0 88 35" fill="none" xmlns="http://www.w3.org/2000/svg">
<rect width="88" height="35" rx="17.5" fill="#363636"/>
<path d="M19.248 15.58C18.96 15.0253 18.56 14.6093 18.048 14.332C17.536 14.044 16.944 13.9 16.272 13.9C15.536 13.9 14.88 14.0653 14.304 14.396C13.728 14.7267 13.2747 15.196 12.944 15.804C12.624 16.412 12.464 17.116 12.464 17.916C12.464 18.716 12.624 19.4253 12.944 20.044C13.2747 20.652 13.728 21.1213 14.304 21.452C14.88 21.7827 15.536 21.948 16.272 21.948C17.264 21.948 18.0693 21.6707 18.688 21.116C19.3067 20.5613 19.6853 19.8093 19.824 18.86H15.648V17.404H21.776V18.828C21.6587 19.692 21.3493 20.4867 20.848 21.212C20.3573 21.9373 19.712 22.5187 18.912 22.956C18.1227 23.3827 17.2427 23.596 16.272 23.596C15.2267 23.596 14.272 23.356 13.408 22.876C12.544 22.3853 11.856 21.708 11.344 20.844C10.8427 19.98 10.592 19.004 10.592 17.916C10.592 16.828 10.8427 15.852 11.344 14.988C11.856 14.124 12.544 13.452 13.408 12.972C14.2827 12.4813 15.2373 12.236 16.272 12.236C17.456 12.236 18.5067 12.5293 19.424 13.116C20.352 13.692 21.024 14.5133 21.44 15.58H19.248ZM31.559 14.684V23.5H29.735V22.46C29.447 22.8227 29.0683 23.1107 28.599 23.324C28.1403 23.5267 27.6497 23.628 27.127 23.628C26.4337 23.628 25.8097 23.484 25.255 23.196C24.711 22.908 24.279 22.4813 23.959 21.916C23.6497 21.3507 23.495 20.668 23.495 19.868V14.684H25.303V19.596C25.303 20.3853 25.5003 20.9933 25.895 21.42C26.2897 21.836 26.8283 22.044 27.511 22.044C28.1937 22.044 28.7323 21.836 29.127 21.42C29.5323 20.9933 29.735 20.3853 29.735 19.596V14.684H31.559ZM33.3576 19.052C33.3576 18.1667 33.539 17.3827 33.9016 16.7C34.275 16.0173 34.7763 15.4893 35.4056 15.116C36.0456 14.732 36.7496 14.54 37.5176 14.54C38.211 14.54 38.8136 14.6787 39.3256 14.956C39.8483 15.2227 40.2643 15.5587 40.5736 15.964V14.684H42.4136V23.5H40.5736V22.188C40.2643 22.604 39.843 22.9507 39.3096 23.228C38.7763 23.5053 38.1683 23.644 37.4856 23.644C36.7283 23.644 36.035 23.452 35.4056 23.068C34.7763 22.6733 34.275 22.1293 33.9016 21.436C33.539 20.732 33.3576 19.9373 33.3576 19.052ZM40.5736 19.084C40.5736 18.476 40.4456 17.948 40.1896 17.5C39.9443 17.052 39.619 16.7107 39.2136 16.476C38.8083 16.2413 38.371 16.124 37.9016 16.124C37.4323 16.124 36.995 16.2413 36.5896 16.476C36.1843 16.7 35.8536 17.036 35.5976 17.484C35.3523 17.9213 35.2296 18.444 35.2296 19.052C35.2296 19.66 35.3523 20.1933 35.5976 20.652C35.8536 21.1107 36.1843 21.4627 36.5896 21.708C37.0056 21.9427 37.443 22.06 37.9016 22.06C38.371 22.06 38.8083 21.9427 39.2136 21.708C39.619 21.4733 39.9443 21.132 40.1896 20.684C40.4456 20.2253 40.5736 19.692 40.5736 19.084ZM46.6334 15.964C46.9 15.516 47.252 15.1693 47.6894 14.924C48.1374 14.668 48.6654 14.54 49.2734 14.54V16.428H48.8094C48.0947 16.428 47.5507 16.6093 47.1774 16.972C46.8147 17.3347 46.6334 17.964 46.6334 18.86V23.5H44.8094V14.684H46.6334V15.964ZM50.342 19.052C50.342 18.1667 50.5233 17.3827 50.886 16.7C51.2593 16.0173 51.7607 15.4893 52.39 15.116C53.03 14.732 53.7393 14.54 54.518 14.54C55.094 14.54 55.6593 14.668 56.214 14.924C56.7793 15.1693 57.2273 15.5 57.558 15.916V11.66H59.398V23.5H57.558V22.172C57.2593 22.5987 56.8433 22.9507 56.31 23.228C55.7873 23.5053 55.1847 23.644 54.502 23.644C53.734 23.644 53.03 23.452 52.39 23.068C51.7607 22.6733 51.2593 22.1293 50.886 21.436C50.5233 20.732 50.342 19.9373 50.342 19.052ZM57.558 19.084C57.558 18.476 57.43 17.948 57.174 17.5C56.9287 17.052 56.6033 16.7107 56.198 16.476C55.7927 16.2413 55.3553 16.124 54.886 16.124C54.4167 16.124 53.9793 16.2413 53.574 16.476C53.1687 16.7 52.838 17.036 52.582 17.484C52.3367 17.9213 52.214 18.444 52.214 19.052C52.214 19.66 52.3367 20.1933 52.582 20.652C52.838 21.1107 53.1687 21.4627 53.574 21.708C53.99 21.9427 54.4273 22.06 54.886 22.06C55.3553 22.06 55.7927 21.9427 56.198 21.708C56.6033 21.4733 56.9287 21.132 57.174 20.684C57.43 20.2253 57.558 19.692 57.558 19.084ZM61.1858 19.052C61.1858 18.1667 61.3671 17.3827 61.7298 16.7C62.1031 16.0173 62.6044 15.4893 63.2338 15.116C63.8738 14.732 64.5778 14.54 65.3458 14.54C66.0391 14.54 66.6418 14.6787 67.1538 14.956C67.6764 15.2227 68.0924 15.5587 68.4018 15.964V14.684H70.2418V23.5H68.4018V22.188C68.0924 22.604 67.6711 22.9507 67.1378 23.228C66.6044 23.5053 65.9964 23.644 65.3138 23.644C64.5564 23.644 63.8631 23.452 63.2338 23.068C62.6044 22.6733 62.1031 22.1293 61.7298 21.436C61.3671 20.732 61.1858 19.9373 61.1858 19.052ZM68.4018 19.084C68.4018 18.476 68.2738 17.948 68.0178 17.5C67.7724 17.052 67.4471 16.7107 67.0418 16.476C66.6364 16.2413 66.1991 16.124 65.7298 16.124C65.2604 16.124 64.8231 16.2413 64.4178 16.476C64.0124 16.7 63.6818 17.036 63.4258 17.484C63.1804 17.9213 63.0578 18.444 63.0578 19.052C63.0578 19.66 63.1804 20.1933 63.4258 20.652C63.6818 21.1107 64.0124 21.4627 64.4178 21.708C64.8338 21.9427 65.2711 22.06 65.7298 22.06C66.1991 22.06 66.6364 21.9427 67.0418 21.708C67.4471 21.4733 67.7724 21.132 68.0178 20.684C68.2738 20.2253 68.4018 19.692 68.4018 19.084ZM74.4615 15.964C74.7282 15.516 75.0802 15.1693 75.5175 14.924C75.9655 14.668 76.4935 14.54 77.1015 14.54V16.428H76.6375C75.9228 16.428 75.3788 16.6093 75.0055 16.972C74.6428 17.3347 74.4615 17.964 74.4615 18.86V23.5H72.6375V14.684H74.4615V15.964Z" fill="white"/>
</svg>
