<svg width="90" height="50" viewBox="0 0 90 50" fill="none" xmlns="http://www.w3.org/2000/svg">
<rect width="90" height="50" rx="25" fill="#F4F4F4"/>
<path d="M16 22L22 28L28 22" stroke="#848484" stroke-width="2" stroke-linecap="round" stroke-linejoin="round"/>
<rect x="44" y="5" width="40" height="40" rx="20" fill="#0082FB"/>
<path d="M58.9045 20.075C60.0145 20.075 60.9845 20.29 61.8145 20.72C62.6545 21.14 63.2995 21.75 63.7495 22.55C64.2095 23.34 64.4395 24.265 64.4395 25.325C64.4395 26.385 64.2095 27.305 63.7495 28.085C63.2995 28.865 62.6545 29.465 61.8145 29.885C60.9845 30.295 60.0145 30.5 58.9045 30.5H55.4995V20.075H58.9045ZM58.9045 29.105C60.1245 29.105 61.0595 28.775 61.7095 28.115C62.3595 27.455 62.6845 26.525 62.6845 25.325C62.6845 24.115 62.3595 23.17 61.7095 22.49C61.0595 21.81 60.1245 21.47 58.9045 21.47H57.2095V29.105H58.9045ZM68.5943 21.455V24.515H72.1943V25.91H68.5943V29.105H72.6443V30.5H66.8843V20.06H72.6443V21.455H68.5943Z" fill="white"/>
</svg>
