<svg width="30" height="30" viewBox="0 0 30 30" fill="none" xmlns="http://www.w3.org/2000/svg">
<path d="M7.07148 7.01874C4.95986 9.12671 3.77211 11.9872 3.76954 14.9709C3.76696 17.9546 4.94976 20.8171 7.05773 22.9287C9.1657 25.0404 12.0262 26.2281 15.0099 26.2307C17.9936 26.2333 20.8561 25.0505 22.9677 22.9425M25.0577 20.04C26.1154 17.9288 26.482 15.5384 26.1056 13.2073C25.7292 10.8762 24.6288 8.72265 22.9604 7.05172C21.2919 5.38079 19.14 4.27721 16.8095 3.8973C14.4789 3.5174 12.088 3.88043 9.97523 4.93499M4.50023 11.25H11.2502H4.50023ZM16.2502 11.25H25.5002H16.2502ZM4.50023 18.75H18.7502H4.50023ZM23.7502 18.75H25.5002H23.7502Z" fill="#D6D6D6"/>
<path d="M7.07148 7.01874C4.95986 9.12671 3.77211 11.9872 3.76954 14.9709C3.76696 17.9546 4.94976 20.8171 7.05773 22.9287C9.1657 25.0404 12.0262 26.2281 15.0099 26.2307C17.9936 26.2333 20.8561 25.0505 22.9677 22.9425M25.0577 20.04C26.1154 17.9288 26.482 15.5384 26.1056 13.2073C25.7292 10.8762 24.6288 8.72265 22.9604 7.05172C21.2919 5.38079 19.14 4.27721 16.8095 3.8973C14.4789 3.5174 12.088 3.88043 9.97523 4.93499M4.50023 11.25H11.2502M16.2502 11.25H25.5002M4.50023 18.75H18.7502M23.7502 18.75H25.5002" stroke="white" stroke-width="1.5" stroke-linecap="round" stroke-linejoin="round"/>
<path d="M14.375 3.75C13.6293 4.94423 13.0042 6.20962 12.5087 7.5275M11.45 11.4587C10.6 16.4925 11.575 21.7638 14.375 26.25M15.625 3.75C17.5075 6.76633 18.603 10.2068 18.8112 13.7563M18.5525 18.5287C18.0909 21.2692 17.0963 23.8924 15.625 26.25M3.75 3.75L26.25 26.25" stroke="white" stroke-width="1.5" stroke-linecap="round" stroke-linejoin="round"/>
</svg>
